<svg xmlns="http://www.w3.org/2000/svg" viewBox="0 0 1000 400">
  <g fill="#1F70C1">
    <!-- I - 8 bars -->
    <rect x="0" y="0" width="133" height="38"/>
    <rect x="0" y="50" width="133" height="38"/>
    <rect x="0" y="100" width="133" height="38"/>
    <rect x="0" y="150" width="133" height="38"/>
    <rect x="0" y="200" width="133" height="38"/>
    <rect x="0" y="250" width="133" height="38"/>
    <rect x="0" y="300" width="133" height="38"/>
    <rect x="0" y="350" width="133" height="38"/>
    
    <!-- B - Bar 1 (top full) -->
    <rect x="165" y="0" width="310" height="38"/>
    <!-- B - Bar 2 (left + right with curve) -->
    <rect x="165" y="50" width="133" height="38"/>
    <rect x="342" y="50" width="133" height="38"/>
    <!-- B - Bar 3 (left + right with curve) -->
    <rect x="165" y="100" width="133" height="38"/>
    <rect x="342" y="100" width="133" height="38"/>
    <!-- B - Bar 4 (middle shorter) -->
    <rect x="165" y="150" width="270" height="38"/>
    <!-- B - Bar 5 (middle longer) -->
    <rect x="165" y="200" width="290" height="38"/>
    <!-- B - Bar 6 (left + right with curve) -->
    <rect x="165" y="250" width="133" height="38"/>
    <rect x="342" y="250" width="133" height="38"/>
    <!-- B - Bar 7 (left + right with curve) -->
    <rect x="165" y="300" width="133" height="38"/>
    <rect x="342" y="300" width="133" height="38"/>
    <!-- B - Bar 8 (bottom full) -->
    <rect x="165" y="350" width="310" height="38"/>
    
    <!-- M - Left leg (8 bars) -->
    <rect x="507" y="0" width="133" height="38"/>
    <rect x="507" y="50" width="133" height="38"/>
    <rect x="507" y="100" width="133" height="38"/>
    <rect x="507" y="150" width="133" height="38"/>
    <rect x="507" y="200" width="133" height="38"/>
    <rect x="507" y="250" width="133" height="38"/>
    <rect x="507" y="300" width="133" height="38"/>
    <rect x="507" y="350" width="133" height="38"/>
    
    <!-- M - Middle (3 bars for the peak) -->
    <rect x="672" y="50" width="133" height="38"/>
    <rect x="672" y="100" width="133" height="38"/>
    <rect x="672" y="150" width="133" height="38"/>
    
    <!-- M - Right leg (8 bars) -->
    <rect x="837" y="0" width="133" height="38"/>
    <rect x="837" y="50" width="133" height="38"/>
    <rect x="837" y="100" width="133" height="38"/>
    <rect x="837" y="150" width="133" height="38"/>
    <rect x="837" y="200" width="133" height="38"/>
    <rect x="837" y="250" width="133" height="38"/>
    <rect x="837" y="300" width="133" height="38"/>
    <rect x="837" y="350" width="133" height="38"/>
  </g>
</svg>
